<svg width="164" height="37" viewBox="0 0 164 37" fill="none" xmlns="http://www.w3.org/2000/svg">
<path d="M15.72 29.48C13.56 29.48 11.5467 29.1333 9.68 28.44C7.84 27.72 6.24 26.7067 4.88 25.4C3.52 24.0933 2.45333 22.56 1.68 20.8C0.933333 19.04 0.56 17.1067 0.56 15C0.56 12.8933 0.933333 10.96 1.68 9.2C2.45333 7.44 3.52 5.90667 4.88 4.6C6.26667 3.29333 7.88 2.29333 9.72 1.6C11.56 0.879999 13.5733 0.52 15.76 0.52C18.1867 0.52 20.3733 0.946666 22.32 1.8C24.2933 2.62667 25.9467 3.85333 27.28 5.48L23.12 9.32C22.16 8.22667 21.0933 7.41333 19.92 6.88C18.7467 6.32 17.4667 6.04 16.08 6.04C14.7733 6.04 13.5733 6.25333 12.48 6.68C11.3867 7.10666 10.44 7.72 9.64 8.52C8.84 9.32 8.21333 10.2667 7.76 11.36C7.33333 12.4533 7.12 13.6667 7.12 15C7.12 16.3333 7.33333 17.5467 7.76 18.64C8.21333 19.7333 8.84 20.68 9.64 21.48C10.44 22.28 11.3867 22.8933 12.48 23.32C13.5733 23.7467 14.7733 23.96 16.08 23.96C17.4667 23.96 18.7467 23.6933 19.92 23.16C21.0933 22.6 22.16 21.76 23.12 20.64L27.28 24.48C25.9467 26.1067 24.2933 27.3467 22.32 28.2C20.3733 29.0533 18.1733 29.48 15.72 29.48ZM44.2988 29V24.8L43.8988 23.88V16.36C43.8988 15.0267 43.4854 13.9867 42.6588 13.24C41.8588 12.4933 40.6188 12.12 38.9388 12.12C37.7921 12.12 36.6588 12.3067 35.5388 12.68C34.4454 13.0267 33.5121 13.5067 32.7388 14.12L30.4988 9.76C31.6721 8.93333 33.0854 8.29333 34.7388 7.84C36.3921 7.38667 38.0721 7.16 39.7788 7.16C43.0588 7.16 45.6054 7.93333 47.4188 9.48C49.2321 11.0267 50.1388 13.44 50.1388 16.72V29H44.2988ZM37.7388 29.32C36.0588 29.32 34.6188 29.04 33.4188 28.48C32.2188 27.8933 31.2988 27.1067 30.6588 26.12C30.0188 25.1333 29.6988 24.0267 29.6988 22.8C29.6988 21.52 30.0054 20.4 30.6188 19.44C31.2588 18.48 32.2588 17.7333 33.6188 17.2C34.9788 16.64 36.7521 16.36 38.9388 16.36H44.6588V20H39.6188C38.1521 20 37.1388 20.24 36.5788 20.72C36.0454 21.2 35.7788 21.8 35.7788 22.52C35.7788 23.32 36.0854 23.96 36.6988 24.44C37.3388 24.8933 38.2054 25.12 39.2988 25.12C40.3388 25.12 41.2721 24.88 42.0988 24.4C42.9254 23.8933 43.5254 23.16 43.8988 22.2L44.8588 25.08C44.4054 26.4667 43.5788 27.52 42.3788 28.24C41.1788 28.96 39.6321 29.32 37.7388 29.32ZM83.3463 7.16C85.0529 7.16 86.5596 7.50667 87.8663 8.2C89.1996 8.86667 90.2396 9.90667 90.9863 11.32C91.7596 12.7067 92.1463 14.4933 92.1463 16.68V29H85.9063V17.64C85.9063 15.9067 85.5463 14.6267 84.8263 13.8C84.1063 12.9733 83.0929 12.56 81.7863 12.56C80.8796 12.56 80.0663 12.7733 79.3463 13.2C78.6263 13.6 78.0663 14.2133 77.6663 15.04C77.2663 15.8667 77.0663 16.92 77.0663 18.2V29H70.8263V17.64C70.8263 15.9067 70.4663 14.6267 69.7463 13.8C69.0529 12.9733 68.0529 12.56 66.7463 12.56C65.8396 12.56 65.0263 12.7733 64.3063 13.2C63.5863 13.6 63.0263 14.2133 62.6263 15.04C62.2263 15.8667 62.0263 16.92 62.0263 18.2V29H55.7863V7.48H61.7463V13.36L60.6263 11.64C61.3729 10.1733 62.4263 9.06667 63.7863 8.32C65.1729 7.54667 66.7463 7.16 68.5063 7.16C70.4796 7.16 72.1996 7.66667 73.6663 8.68C75.1596 9.66667 76.1463 11.1867 76.6263 13.24L74.4263 12.64C75.1463 10.96 76.2929 9.62667 77.8663 8.64C79.4663 7.65333 81.2929 7.16 83.3463 7.16ZM110.459 29.32C108.646 29.32 107.059 28.92 105.699 28.12C104.339 27.32 103.273 26.1067 102.499 24.48C101.753 22.8267 101.379 20.7467 101.379 18.24C101.379 15.7067 101.739 13.6267 102.459 12C103.179 10.3733 104.219 9.16 105.579 8.36C106.939 7.56 108.566 7.16 110.459 7.16C112.486 7.16 114.299 7.62667 115.899 8.56C117.526 9.46667 118.806 10.7467 119.739 12.4C120.699 14.0533 121.179 16 121.179 18.24C121.179 20.5067 120.699 22.4667 119.739 24.12C118.806 25.7733 117.526 27.0533 115.899 27.96C114.299 28.8667 112.486 29.32 110.459 29.32ZM97.7394 36.76V7.48H103.699V11.88L103.579 18.28L103.979 24.64V36.76H97.7394ZM109.379 24.2C110.419 24.2 111.339 23.96 112.139 23.48C112.966 23 113.619 22.32 114.099 21.44C114.606 20.5333 114.859 19.4667 114.859 18.24C114.859 16.9867 114.606 15.92 114.099 15.04C113.619 14.16 112.966 13.48 112.139 13C111.339 12.52 110.419 12.28 109.379 12.28C108.339 12.28 107.406 12.52 106.579 13C105.753 13.48 105.099 14.16 104.619 15.04C104.139 15.92 103.899 16.9867 103.899 18.24C103.899 19.4667 104.139 20.5333 104.619 21.44C105.099 22.32 105.753 23 106.579 23.48C107.406 23.96 108.339 24.2 109.379 24.2ZM136.037 29.32C133.583 29.32 131.423 28.84 129.557 27.88C127.717 26.92 126.29 25.6133 125.277 23.96C124.263 22.28 123.757 20.3733 123.757 18.24C123.757 16.08 124.25 14.1733 125.237 12.52C126.25 10.84 127.623 9.53333 129.357 8.6C131.09 7.64 133.05 7.16 135.237 7.16C137.343 7.16 139.237 7.61333 140.917 8.52C142.623 9.4 143.97 10.68 144.957 12.36C145.943 14.0133 146.437 16 146.437 18.32C146.437 18.56 146.423 18.84 146.397 19.16C146.37 19.4533 146.343 19.7333 146.317 20H128.837V16.36H143.037L140.637 17.44C140.637 16.32 140.41 15.3467 139.957 14.52C139.503 13.6933 138.877 13.0533 138.077 12.6C137.277 12.12 136.343 11.88 135.277 11.88C134.21 11.88 133.263 12.12 132.437 12.6C131.637 13.0533 131.01 13.7067 130.557 14.56C130.103 15.3867 129.877 16.3733 129.877 17.52V18.48C129.877 19.6533 130.13 20.6933 130.637 21.6C131.17 22.48 131.903 23.16 132.837 23.64C133.797 24.0933 134.917 24.32 136.197 24.32C137.343 24.32 138.343 24.1467 139.197 23.8C140.077 23.4533 140.877 22.9333 141.597 22.24L144.917 25.84C143.93 26.96 142.69 27.8267 141.197 28.44C139.703 29.0267 137.983 29.32 136.037 29.32ZM150.591 29V7.48H156.551V13.56L155.711 11.8C156.351 10.28 157.378 9.13333 158.791 8.36C160.204 7.56 161.924 7.16 163.951 7.16V12.92C163.684 12.8933 163.444 12.88 163.231 12.88C163.018 12.8533 162.791 12.84 162.551 12.84C160.844 12.84 159.458 13.3333 158.391 14.32C157.351 15.28 156.831 16.7867 156.831 18.84V29H150.591Z" fill="white"/>
</svg>
