<svg width="27" height="27" viewBox="0 0 27 27" fill="none" xmlns="http://www.w3.org/2000/svg">
<path d="M10.125 24C11.1605 24 12 23.1605 12 22.125C12 21.0895 11.1605 20.25 10.125 20.25C9.08947 20.25 8.25 21.0895 8.25 22.125C8.25 23.1605 9.08947 24 10.125 24Z" fill="#006DAB"/>
<path d="M19.875 24C20.9105 24 21.75 23.1605 21.75 22.125C21.75 21.0895 20.9105 20.25 19.875 20.25C18.8395 20.25 18 21.0895 18 22.125C18 23.1605 18.8395 24 19.875 24Z" fill="#006DAB"/>
<path d="M24.8249 4.79264C24.755 4.70188 24.6653 4.62833 24.5626 4.57763C24.4599 4.52692 24.3469 4.50042 24.2324 4.50014H6.90737L6.56987 3.42764C6.53279 3.31249 6.46841 3.20801 6.38222 3.12312C6.29603 3.03823 6.19058 2.97545 6.07487 2.94014L2.99987 1.99514C2.90532 1.96609 2.80597 1.95594 2.7075 1.96528C2.60902 1.97462 2.51335 2.00326 2.42595 2.04958C2.24943 2.14311 2.1173 2.30294 2.05862 2.49389C1.99994 2.68485 2.01952 2.89129 2.11305 3.06781C2.20659 3.24433 2.36641 3.37646 2.55737 3.43514L5.24987 4.26014L8.68487 15.1126L7.46237 16.1176L7.36487 16.2151C7.06254 16.5652 6.89125 17.0095 6.88031 17.4719C6.86937 17.9343 7.01944 18.3862 7.30487 18.7501C7.50929 18.9987 7.76905 19.196 8.06337 19.3263C8.3577 19.4565 8.67841 19.516 8.99987 19.5001H21.5174C21.7163 19.5001 21.907 19.4211 22.0477 19.2805C22.1883 19.1398 22.2674 18.9491 22.2674 18.7501C22.2674 18.5512 22.1883 18.3605 22.0477 18.2198C21.907 18.0792 21.7163 18.0001 21.5174 18.0001H8.87987C8.7935 17.9972 8.70936 17.972 8.63556 17.9271C8.56177 17.8821 8.50081 17.8189 8.45859 17.7435C8.41637 17.6681 8.3943 17.583 8.39452 17.4966C8.39475 17.4102 8.41725 17.3253 8.45987 17.2501L10.2674 15.7501H21.8399C22.0112 15.7551 22.1791 15.7013 22.3155 15.5976C22.452 15.4939 22.5488 15.3465 22.5899 15.1801L24.9899 5.43014C25.0127 5.31833 25.0097 5.20279 24.9811 5.09231C24.9525 4.98184 24.8991 4.87935 24.8249 4.79264Z" fill="#006DAB"/>
</svg>
